<?xml version="1.0" encoding="UTF-8"?>
<!DOCTYPE svg PUBLIC "-//W3C//DTD SVG 1.1//EN" "http://www.w3.org/Graphics/SVG/1.1/DTD/svg11.dtd">
<svg xmlns="http://www.w3.org/2000/svg" version="1.1" width="4096px" height="1702px" style="shape-rendering:geometricPrecision; text-rendering:geometricPrecision; image-rendering:optimizeQuality; fill-rule:evenodd; clip-rule:evenodd" xmlns:xlink="http://www.w3.org/1999/xlink">
<g><path style="opacity:0.997" fill="#0ded10" d="M 359.5,-0.5 C 685.833,-0.5 1012.17,-0.5 1338.5,-0.5C 1404.74,3.41476 1466.74,21.5814 1524.5,54C 1595.13,96.9702 1645.97,156.804 1677,233.5C 1696.62,283.944 1706.62,336.277 1707,390.5C 1707.37,550.833 1707.2,711.167 1706.5,871.5C 1706.31,998.178 1707.14,1124.85 1709,1251.5C 1708.39,1300.08 1704.72,1348.42 1698,1396.5C 1676.29,1506.77 1617.46,1590.27 1521.5,1647C 1488.37,1665.38 1453.37,1679.05 1416.5,1688C 1400,1691.48 1383.34,1693.81 1366.5,1695C 1360.25,1695.91 1354.58,1698.08 1349.5,1701.5C 901.167,1701.5 452.833,1701.5 4.5,1701.5C 2.85774,1700.2 1.19107,1698.86 -0.5,1697.5C -0.5,1570.17 -0.5,1442.83 -0.5,1315.5C 1.5041,1314.33 3.0041,1312.66 4,1310.5C 4.5,1124.83 4.66667,939.167 4.5,753.5C 4.5,752.5 4.5,751.5 4.5,750.5C 4.85771,701.67 4.85771,652.67 4.5,603.5C 4.5,535.5 4.5,467.5 4.5,399.5C 5.17775,390.838 5.34442,382.171 5,373.5C 3.58807,371.548 1.75474,370.215 -0.5,369.5C -0.5,359.833 -0.5,350.167 -0.5,340.5C 2.99725,339.5 4.83058,337.167 5,333.5C 14.0781,232.818 57.5781,150.985 135.5,88C 168.604,62.95 204.271,41.95 242.5,25C 277.56,11.6546 313.893,4.32122 351.5,3C 354.158,1.52203 356.825,0.355367 359.5,-0.5 Z M 801.5,172.5 C 855.178,172.117 908.845,172.617 962.5,174C 967.5,174.333 972.5,174.667 977.5,175C 982.385,176.954 984.552,180.454 984,185.5C 966.58,219.007 951.913,253.673 940,289.5C 919.846,380.829 925.513,470.496 957,558.5C 978.518,613.391 1011.68,659.891 1056.5,698C 1110.27,742.546 1171.6,772.213 1240.5,787C 1267.38,790.883 1294.38,793.717 1321.5,795.5C 1336.07,795.42 1350.07,792.586 1363.5,787C 1364.41,785.301 1364.74,783.467 1364.5,781.5C 1369.64,782.393 1374.64,783.893 1379.5,786C 1390,786.862 1400.33,785.862 1410.5,783C 1442.09,775.197 1472.09,763.53 1500.5,748C 1508.42,742.54 1516.76,737.873 1525.5,734C 1531,732.11 1534.5,733.943 1536,739.5C 1536.33,921.5 1536.67,1103.5 1537,1285.5C 1537.87,1288.62 1539.04,1291.62 1540.5,1294.5C 1536.98,1319 1532.48,1343.33 1527,1367.5C 1502.36,1440.8 1453.2,1489.3 1379.5,1513C 1364.99,1516.53 1350.33,1519.2 1335.5,1521C 1193.17,1520.9 1050.83,1520.4 908.5,1519.5C 731.167,1520.54 553.834,1520.71 376.5,1520C 281.248,1509.74 218.414,1459.24 188,1368.5C 184.566,1355.33 181.899,1341.99 180,1328.5C 177.76,1307.86 175.76,1287.19 174,1266.5C 171.284,1253.64 167.951,1240.97 164,1228.5C 163.667,1098.5 163.333,968.5 163,838.5C 161.911,813.956 161.077,789.456 160.5,765C 161.991,761.7 162.657,758.2 162.5,754.5C 160.967,729.186 159.967,703.852 159.5,678.5C 160.808,660.257 161.474,641.924 161.5,623.5C 162.11,553.167 162.61,482.834 163,412.5C 166.402,405.794 169.736,399.127 173,392.5C 173.749,383.479 173.582,374.479 172.5,365.5C 173.225,360.814 174.059,356.147 175,351.5C 189.754,321.19 207.087,292.523 227,265.5C 269.037,215.888 322.537,186.721 387.5,178C 404.053,175.286 420.72,173.953 437.5,174C 541.831,174.478 646.164,174.478 750.5,174C 767.672,173.832 784.672,173.332 801.5,172.5 Z M 1304.5,175.5 C 1397.84,174.731 1467.68,214.398 1514,294.5C 1544.85,356.447 1548.85,420.113 1526,485.5C 1501.19,543.977 1459.02,584.477 1399.5,607C 1382.54,612.157 1365.54,617.157 1348.5,622C 1326.83,622.667 1305.17,622.667 1283.5,622C 1243.32,614.057 1206.66,598.39 1173.5,575C 1125.14,534.458 1097.64,482.625 1091,419.5C 1086.42,343.187 1111.92,279.02 1167.5,227C 1200.82,200.351 1238.82,184.018 1281.5,178C 1289.33,177.256 1296.99,176.423 1304.5,175.5 Z"/></g>
<g><path style="opacity:0.992" fill="#0eed11" d="M 1312.5,299.5 C 1318.07,298.99 1323.41,299.823 1328.5,302C 1344.61,314.775 1361.28,326.775 1378.5,338C 1394.82,350.134 1401.65,366.301 1399,386.5C 1395.38,397.654 1392.38,408.987 1390,420.5C 1388.84,436.229 1387.17,451.896 1385,467.5C 1380.75,480.466 1371.75,486.466 1358,485.5C 1327.17,484.734 1296.34,484.234 1265.5,484C 1256.77,483.277 1250.94,478.777 1248,470.5C 1243.91,459.797 1240.91,448.797 1239,437.5C 1233.33,420.162 1227.66,402.829 1222,385.5C 1220.53,379.569 1220.2,373.569 1221,367.5C 1225.14,360.694 1230.64,355.194 1237.5,351C 1259.78,335.722 1281.78,320.055 1303.5,304C 1306.59,302.454 1309.59,300.954 1312.5,299.5 Z"/></g>
<g><path style="opacity:0.994" fill="#0eed10" d="M 4044.5,335.5 C 4051.7,334.627 4058.2,336.293 4064,340.5C 4067.5,347.006 4067.17,353.339 4063,359.5C 4057.39,365.113 4051.72,370.779 4046,376.5C 3980.94,465.543 3915.94,554.543 3851,643.5C 3846.82,650.72 3843.82,658.387 3842,666.5C 3841.33,702.5 3841.33,738.5 3842,774.5C 3848.8,792.571 3842.63,802.571 3823.5,804.5C 3816.97,804.45 3810.63,803.284 3804.5,801C 3785.5,800.333 3766.5,800.333 3747.5,801C 3739.31,801.98 3731.14,803.147 3723,804.5C 3716.68,804.836 3711.68,802.503 3708,797.5C 3706.99,791.38 3706.49,785.213 3706.5,779C 3707.12,743.663 3707.79,708.33 3708.5,673C 3708.31,665.099 3706.48,657.599 3703,650.5C 3693.29,630.801 3681.95,612.134 3669,594.5C 3637.72,556.894 3608.38,517.894 3581,477.5C 3550.31,437.808 3519.98,397.808 3490,357.5C 3485.81,351.468 3483.65,344.801 3483.5,337.5C 3532.58,337.01 3581.58,337.51 3630.5,339C 3637.09,345.264 3642.59,352.43 3647,360.5C 3658.3,375.143 3669.64,389.809 3681,404.5C 3692.91,421.418 3705.24,438.085 3718,454.5C 3731.6,473.396 3744.94,492.396 3758,511.5C 3762.05,516.427 3766.22,521.26 3770.5,526C 3777.53,529.763 3783.36,528.263 3788,521.5C 3827.73,465.124 3867.39,408.791 3907,352.5C 3921.33,336.793 3938.5,332.96 3958.5,341C 3979.5,341.744 4000.5,342.077 4021.5,342C 4029,338.764 4036.66,336.598 4044.5,335.5 Z"/></g>
<g><path style="opacity:0.995" fill="#0eed10" d="M 2054.5,336.5 C 2098.84,336.785 2143.17,337.285 2187.5,338C 2221.72,338.261 2255.38,342.595 2288.5,351C 2334.75,366.919 2367.91,397.085 2388,441.5C 2403.99,487.901 2404.66,534.568 2390,581.5C 2374.44,616.059 2349.61,641.892 2315.5,659C 2278.08,677.606 2238.41,687.606 2196.5,689C 2142.49,689.633 2088.49,689.133 2034.5,687.5C 2028,687.2 2021.67,688.033 2015.5,690C 2009.58,693.926 2006.08,699.426 2005,706.5C 2005.83,735.154 2006.16,763.82 2006,792.5C 2005.68,795.973 2004.18,798.806 2001.5,801C 1997.44,803.113 1993.11,804.28 1988.5,804.5C 1955.34,799.22 1922.17,799.22 1889,804.5C 1880.71,805.029 1875.38,801.363 1873,793.5C 1872,644.778 1872.34,496.111 1874,347.5C 1875.86,342.974 1879.03,339.808 1883.5,338C 1940.67,337.833 1997.67,337.333 2054.5,336.5 Z M 2103.5,442.5 C 2110.41,444.097 2117.41,445.263 2124.5,446C 2143.83,446.333 2163.17,446.667 2182.5,447C 2211.47,446.52 2235.3,457.02 2254,478.5C 2266.79,502.314 2266.45,525.981 2253,549.5C 2242.97,562.106 2230.14,570.606 2214.5,575C 2193.03,577.266 2171.53,577.766 2150,576.5C 2131.37,576.797 2112.87,578.463 2094.5,581.5C 2067.84,580.731 2041.17,580.231 2014.5,580C 2008.43,576.863 2005.43,571.863 2005.5,565C 2011.92,529.496 2011.92,493.996 2005.5,458.5C 2005.58,451.828 2008.58,446.995 2014.5,444C 2044.34,443.832 2074,443.332 2103.5,442.5 Z"/></g>
<g><path style="opacity:0.995" fill="#0ded11" d="M 2489.5,337.5 C 2524.17,337.333 2558.83,337.5 2593.5,338C 2597.02,338.504 2599.52,340.337 2601,343.5C 2602.06,347.446 2602.9,351.446 2603.5,355.5C 2602.34,461.479 2602.17,567.479 2603,673.5C 2603.26,678.017 2604.26,682.351 2606,686.5C 2611.39,689.628 2617.22,691.128 2623.5,691C 2703.84,691.735 2784.17,691.568 2864.5,690.5C 2874.83,690.667 2885.17,690.833 2895.5,691C 2904.87,692.089 2911.37,696.922 2915,705.5C 2915.66,716.718 2915.16,727.885 2913.5,739C 2915.1,753.802 2915.6,768.635 2915,783.5C 2914.01,789.312 2912.17,794.812 2909.5,800C 2905.07,802.81 2900.24,803.976 2895,803.5C 2868.41,800.375 2841.91,796.542 2815.5,792C 2799.52,790.915 2783.52,790.248 2767.5,790C 2764.77,789.587 2762.1,788.92 2759.5,788C 2716.5,787.333 2673.5,787.333 2630.5,788C 2628.29,789.044 2625.95,789.71 2623.5,790C 2605.81,790.24 2588.15,790.906 2570.5,792C 2566.02,793.954 2561.35,795.287 2556.5,796C 2532.9,798.103 2509.4,800.937 2486,804.5C 2475.04,804.208 2469.37,798.541 2469,787.5C 2469.23,640.836 2469.56,494.169 2470,347.5C 2470.69,344.804 2472.19,342.637 2474.5,341C 2479.59,339.62 2484.59,338.454 2489.5,337.5 Z"/></g>
<g><path style="opacity:0.994" fill="#0eed10" d="M 3181.5,337.5 C 3189.51,337.334 3197.51,337.5 3205.5,338C 3216.95,340.156 3228.28,342.823 3239.5,346C 3257.81,347.439 3276.15,347.772 3294.5,347C 3310.17,344 3325.83,341 3341.5,338C 3348.83,337.333 3356.17,337.333 3363.5,338C 3370.43,342.976 3375.59,349.476 3379,357.5C 3446.07,503.808 3513.24,649.975 3580.5,796C 3579.92,798.499 3578.58,800.499 3576.5,802C 3550.5,802.792 3524.5,803.625 3498.5,804.5C 3478.39,804.313 3458.39,802.813 3438.5,800C 3431.16,791.652 3424.99,782.485 3420,772.5C 3416.53,761.77 3412.87,751.103 3409,740.5C 3404.96,733.226 3398.79,729.059 3390.5,728C 3366.18,729.816 3341.85,731.816 3317.5,734C 3277.49,736.022 3237.49,735.689 3197.5,733C 3193.49,731.66 3189.49,730.327 3185.5,729C 3176.97,728.407 3168.47,727.573 3160,726.5C 3155.02,727.08 3150.19,728.246 3145.5,730C 3140.71,733.118 3136.21,736.618 3132,740.5C 3124.64,754.92 3118.64,769.92 3114,785.5C 3110.5,791.667 3105.67,796.5 3099.5,800C 3093.24,801.481 3086.91,802.481 3080.5,803C 3043.49,803.454 3006.49,803.787 2969.5,804C 2962.79,802.41 2960.29,798.244 2962,791.5C 2964.33,785.5 2966.67,779.5 2969,773.5C 3029.59,641.984 3089.92,510.317 3150,378.5C 3154.29,369.617 3158.96,360.95 3164,352.5C 3167.16,348.341 3170.66,344.508 3174.5,341C 3176.93,339.787 3179.26,338.621 3181.5,337.5 Z M 3270.5,431.5 C 3274.24,437.979 3277.74,444.646 3281,451.5C 3303.17,501.859 3326.51,551.859 3351,601.5C 3355.04,614.446 3350.37,621.446 3337,622.5C 3326.53,621.314 3316.03,620.481 3305.5,620C 3271.5,619.667 3237.5,619.333 3203.5,619C 3198.02,619.63 3193.69,617.796 3190.5,613.5C 3217.78,552.943 3244.45,492.277 3270.5,431.5 Z"/></g>
<g><path style="opacity:1" fill="#4ef267" d="M -0.5,369.5 C 1.75474,370.215 3.58807,371.548 5,373.5C 5.34442,382.171 5.17775,390.838 4.5,399.5C 2.95819,400.301 1.29152,400.634 -0.5,400.5C -0.5,390.167 -0.5,379.833 -0.5,369.5 Z"/></g>
<g><path style="opacity:1" fill="#14ed2b" d="M 4.5,399.5 C 4.5,467.5 4.5,535.5 4.5,603.5C 2.83333,603.5 1.16667,603.5 -0.5,603.5C -0.5,535.833 -0.5,468.167 -0.5,400.5C 1.29152,400.634 2.95819,400.301 4.5,399.5 Z"/></g>
<g><path style="opacity:1" fill="#44f15e" d="M -0.5,676.5 C 0.833333,676.5 2.16667,676.5 3.5,676.5C 4.07028,701.163 4.40361,725.829 4.5,750.5C 4.5,751.5 4.5,752.5 4.5,753.5C 2.95819,754.301 1.29152,754.634 -0.5,754.5C -0.5,728.5 -0.5,702.5 -0.5,676.5 Z"/></g>
<g><path style="opacity:1" fill="#28ef42" d="M -0.5,603.5 C 1.16667,603.5 2.83333,603.5 4.5,603.5C 4.85771,652.67 4.85771,701.67 4.5,750.5C 4.40361,725.829 4.07028,701.163 3.5,676.5C 2.16667,676.5 0.833333,676.5 -0.5,676.5C -0.5,652.167 -0.5,627.833 -0.5,603.5 Z"/></g>
<g><path style="opacity:1" fill="#2cee3c" d="M 4.5,753.5 C 4.66667,939.167 4.5,1124.83 4,1310.5C 3.0041,1312.66 1.5041,1314.33 -0.5,1315.5C -0.5,1128.5 -0.5,941.5 -0.5,754.5C 1.29152,754.634 2.95819,754.301 4.5,753.5 Z"/></g>
<g><path style="opacity:0.995" fill="#0ded10" d="M 2622.5,870.5 C 2678.06,869.112 2732.73,875.279 2786.5,889C 2831.34,900.991 2869.51,923.824 2901,957.5C 2927.05,989.954 2943.05,1026.95 2949,1068.5C 2959.07,1123.46 2952.74,1176.46 2930,1227.5C 2905.99,1272.17 2870.49,1304.34 2823.5,1324C 2700.97,1376.99 2578.64,1376.65 2456.5,1323C 2380.77,1282.49 2340.6,1218.99 2336,1132.5C 2333.03,1090.63 2339.36,1050.3 2355,1011.5C 2387.36,945.166 2439.53,902.999 2511.5,885C 2522.39,882.155 2533.39,879.822 2544.5,878C 2570.59,874.89 2596.59,872.39 2622.5,870.5 Z M 2623.5,980.5 C 2674.36,978.503 2722.03,989.669 2766.5,1014C 2790.84,1031.51 2806.01,1055.01 2812,1084.5C 2820.15,1124.1 2812.81,1160.43 2790,1193.5C 2784.68,1199.1 2779.18,1204.6 2773.5,1210C 2746.94,1227.27 2718.27,1240.27 2687.5,1249C 2676.55,1250.55 2665.55,1250.88 2654.5,1250C 2624.35,1249.69 2594.69,1245.69 2565.5,1238C 2484.71,1206.91 2456.21,1149.41 2480,1065.5C 2486.59,1051.31 2494.92,1038.31 2505,1026.5C 2516.55,1016.64 2529.05,1008.14 2542.5,1001C 2568.72,990.748 2595.72,983.914 2623.5,980.5 Z"/></g>
<g><path style="opacity:0.996" fill="#0eed11" d="M 3435.5,886.5 C 3457.5,887.262 3479.5,887.928 3501.5,888.5C 3517.17,888.014 3532.84,887.847 3548.5,888C 3551.28,888.066 3553.44,889.232 3555,891.5C 3555.96,894.93 3556.46,898.43 3556.5,902C 3552.31,947.467 3548.48,992.967 3545,1038.5C 3544.33,1087.17 3544.33,1135.83 3545,1184.5C 3549,1230.15 3552.83,1275.82 3556.5,1321.5C 3556.81,1326.4 3555.97,1331.07 3554,1335.5C 3551.96,1337.6 3549.46,1338.77 3546.5,1339C 3507.83,1339.66 3469.16,1339.99 3430.5,1340C 3421.74,1337.7 3414.24,1333.2 3408,1326.5C 3320.06,1229.89 3232.06,1133.22 3144,1036.5C 3143.19,1121.67 3143.36,1206.84 3144.5,1292C 3144.71,1306.46 3142.87,1320.63 3139,1334.5C 3135.91,1338.49 3131.74,1340.49 3126.5,1340.5C 3093.52,1338.27 3060.52,1337.93 3027.5,1339.5C 3017.32,1339.86 3012.48,1334.86 3013,1324.5C 3012.6,1185.66 3012.43,1046.83 3012.5,908C 3012.22,892.946 3019.55,886.279 3034.5,888C 3078.18,887.12 3121.85,887.454 3165.5,889C 3183.95,904.815 3201.45,921.648 3218,939.5C 3262.98,990.81 3308.98,1041.14 3356,1090.5C 3373.15,1110.98 3390.98,1130.81 3409.5,1150C 3415.7,1153.49 3421.54,1152.99 3427,1148.5C 3428.02,1063.17 3429.02,977.834 3430,892.5C 3431.36,889.977 3433.19,887.977 3435.5,886.5 Z"/></g>
<g><path style="opacity:0.996" fill="#0eed11" d="M 4095.5,888.5 C 4095.5,920.833 4095.5,953.167 4095.5,985.5C 4089.6,988.432 4083.27,989.765 4076.5,989.5C 4065.84,988.945 4055.17,988.611 4044.5,988.5C 3956.17,989.267 3867.84,989.767 3779.5,990C 3767.78,1012.02 3768.94,1033.18 3783,1053.5C 3784.87,1055.71 3787.04,1057.54 3789.5,1059C 3842.5,1060.48 3895.5,1061.98 3948.5,1063.5C 3980.28,1064.03 4011.95,1062.37 4043.5,1058.5C 4053.42,1057.95 4059.92,1062.29 4063,1071.5C 4063.67,1076.83 4063.67,1082.17 4063,1087.5C 4061.42,1096.45 4060.26,1105.45 4059.5,1114.5C 4060.59,1123.37 4061.93,1132.21 4063.5,1141C 4063.61,1151.9 4058.27,1158.23 4047.5,1160C 4043.14,1160.29 4038.8,1160.79 4034.5,1161.5C 3951.17,1160.65 3867.83,1160.15 3784.5,1160C 3777.67,1161.5 3773.5,1165.67 3772,1172.5C 3769.33,1193.16 3773.33,1212.49 3784,1230.5C 3785.83,1232.33 3787.67,1234.17 3789.5,1236C 3797.15,1236.9 3804.81,1237.57 3812.5,1238C 3896.17,1238.67 3979.83,1238.67 4063.5,1238C 4070.13,1236.7 4076.79,1236.36 4083.5,1237C 4087.66,1238.39 4091.66,1239.89 4095.5,1241.5C 4095.5,1273.83 4095.5,1306.17 4095.5,1338.5C 4087.38,1339.68 4079.22,1340.35 4071,1340.5C 3936.49,1339.33 3801.99,1339.66 3667.5,1341.5C 3660.37,1341.07 3653.37,1339.9 3646.5,1338C 3640.56,1333.28 3637.39,1327.11 3637,1319.5C 3637.14,1188.17 3637.81,1056.84 3639,925.5C 3639.74,923.047 3640.24,920.547 3640.5,918C 3635.43,907.403 3636.76,897.736 3644.5,889C 3645.83,888.333 3647.17,887.667 3648.5,887C 3791.17,886.333 3933.83,886.333 4076.5,887C 4082.78,888.188 4089.11,888.688 4095.5,888.5 Z"/></g>
<g><path style="opacity:0.994" fill="#0eed10" d="M 1810.5,887.5 C 1965.19,887.015 2119.85,887.515 2274.5,889C 2286.02,903.715 2291.68,920.548 2291.5,939.5C 2291.25,961.072 2285.09,980.739 2273,998.5C 2260.83,1010.34 2248.33,1021.84 2235.5,1033C 2158.88,1094.35 2082.88,1156.68 2007.5,1220C 2003.83,1222.84 1999.83,1225.17 1995.5,1227C 1992.79,1230.31 1993.46,1232.97 1997.5,1235C 1999.83,1236.17 2002.17,1237.33 2004.5,1238.5C 2050.62,1237.07 2096.79,1236.41 2143,1236.5C 2189.86,1236.25 2236.69,1237.08 2283.5,1239C 2287.17,1240.67 2289.33,1243.5 2290,1247.5C 2290.67,1274.17 2290.67,1300.83 2290,1327.5C 2288.36,1334.74 2283.86,1338.91 2276.5,1340C 2268.67,1340.17 2260.83,1340.33 2253,1340.5C 2106.17,1339.72 1959.33,1339.55 1812.5,1340C 1804.86,1339.44 1799.69,1335.6 1797,1328.5C 1796.26,1320.25 1796.76,1312.09 1798.5,1304C 1794.85,1287.18 1794.68,1270.35 1798,1253.5C 1799.8,1248.42 1801.8,1243.42 1804,1238.5C 1808.61,1230.89 1813.61,1223.56 1819,1216.5C 1826.51,1208.32 1834.68,1200.82 1843.5,1194C 1923.75,1131.35 2002.75,1067.02 2080.5,1001C 2077.88,999.022 2074.88,998.188 2071.5,998.5C 2012.35,998.74 1953.18,999.073 1894,999.5C 1864.77,999.655 1835.61,999.155 1806.5,998C 1802.25,995.424 1799.09,991.924 1797,987.5C 1797.49,977.86 1797.99,968.193 1798.5,958.5C 1798.11,947.317 1797.45,936.151 1796.5,925C 1796.71,913.289 1799.21,902.123 1804,891.5C 1805.79,889.372 1807.96,888.039 1810.5,887.5 Z"/></g>
</svg>
